<?xml version="1.0" encoding="UTF-8"?>
<svg xmlns="http://www.w3.org/2000/svg" xmlns:xlink="http://www.w3.org/1999/xlink" width="719pt" height="695pt" viewBox="0 0 719 695" version="1.1">
<defs>
<clipPath id="clip1">
  <path d="M 306 566 L 452 566 L 452 694.109375 L 306 694.109375 Z M 306 566 "/>
</clipPath>
<clipPath id="clip2">
  <path d="M 589 128 L 717.71875 128 L 717.71875 274 L 589 274 Z M 589 128 "/>
</clipPath>
<clipPath id="clip3">
  <path d="M 589 274 L 717.71875 274 L 717.71875 420 L 589 420 Z M 589 274 "/>
</clipPath>
</defs>
<g id="surface1">
<path style="fill-rule:nonzero;fill:rgb(85.098039%,85.098039%,85.098039%);fill-opacity:1;stroke-width:0.79701;stroke-linecap:butt;stroke-linejoin:miter;stroke:rgb(0%,0%,0%);stroke-opacity:1;stroke-miterlimit:10;" d="M 9.962463 0.0000827338 C 9.962463 5.503743 5.502041 9.964233 -0.0014621 9.964233 C -5.501549 9.964233 -9.96311 5.503743 -9.96311 0.0000827338 C -9.96311 -5.504715 -5.501549 -9.960655 -0.0014621 -9.960655 C 5.502041 -9.960655 9.962463 -5.504715 9.962463 0.0000827338 Z M 9.962463 0.0000827338 " transform="matrix(3.430344,0,0,-3.433794,419.633922,55.047159)"/>
<path style=" stroke:none;fill-rule:nonzero;fill:rgb(0%,0%,0%);fill-opacity:1;" d="M 426.058594 44.121094 C 424.183594 42.996094 422.253906 42.40625 419.785156 42.40625 C 415.015625 42.40625 412.066406 45.785156 412.066406 49.164062 C 412.066406 50.613281 412.550781 52.0625 413.890625 53.511719 C 415.335938 55.066406 416.839844 55.441406 418.875 55.925781 C 421.769531 56.675781 422.089844 56.785156 423.054688 57.589844 C 423.753906 58.179688 424.503906 59.304688 424.503906 60.808594 C 424.503906 63.0625 422.628906 65.316406 419.519531 65.316406 C 418.125 65.316406 415.015625 64.992188 412.175781 62.523438 L 411.640625 65.316406 C 414.640625 67.191406 417.375 67.675781 419.519531 67.675781 C 424.074219 67.675781 427.183594 64.242188 427.183594 60.433594 C 427.183594 58.234375 426.164062 56.570312 425.414062 55.765625 C 423.804688 54.046875 422.679688 53.726562 419.519531 52.976562 C 417.535156 52.492188 417 52.332031 415.925781 51.472656 C 415.714844 51.257812 414.75 50.238281 414.75 48.734375 C 414.75 46.75 416.625 44.660156 419.734375 44.660156 C 422.628906 44.660156 424.234375 45.785156 425.523438 46.859375 Z M 426.058594 44.121094 "/>
<path style="fill-rule:nonzero;fill:rgb(85.098039%,85.098039%,85.098039%);fill-opacity:1;stroke-width:0.79701;stroke-linecap:butt;stroke-linejoin:miter;stroke:rgb(0%,0%,0%);stroke-opacity:1;stroke-miterlimit:10;" d="M -60.904392 -42.519616 C -60.904392 -37.019369 -65.364814 -32.558879 -70.864901 -32.558879 C -76.369543 -32.558879 -80.829965 -37.019369 -80.829965 -42.519616 C -80.829965 -48.023276 -76.369543 -52.484904 -70.864901 -52.484904 C -65.364814 -52.484904 -60.904392 -48.023276 -60.904392 -42.519616 Z M -60.904392 -42.519616 " transform="matrix(3.430344,0,0,-3.433794,419.633922,55.047159)"/>
<path style=" stroke:none;fill-rule:nonzero;fill:rgb(0%,0%,0%);fill-opacity:1;" d="M 178.0625 189.160156 L 175.007812 189.160156 L 166.113281 212.929688 L 168.632812 212.929688 L 171.257812 205.953125 L 181.226562 205.953125 L 183.800781 212.929688 L 186.960938 212.929688 Z M 180.476562 204.023438 L 172.007812 204.023438 L 174.207031 197.851562 C 174.902344 195.8125 175.972656 192.917969 176.242188 191.628906 C 176.347656 192.113281 176.5625 192.96875 177.367188 195.222656 Z M 180.476562 204.023438 "/>
<path style="fill:none;stroke-width:0.79701;stroke-linecap:butt;stroke-linejoin:miter;stroke:rgb(0%,0%,0%);stroke-opacity:1;stroke-miterlimit:10;" d="M -8.884729 -5.331801 L -61.942917 -37.163843 " transform="matrix(3.430344,0,0,-3.433794,419.633922,55.047159)"/>
<path style="fill-rule:nonzero;fill:rgb(85.098039%,85.098039%,85.098039%);fill-opacity:1;stroke-width:0.79701;stroke-linecap:butt;stroke-linejoin:miter;stroke:rgb(0%,0%,0%);stroke-opacity:1;stroke-miterlimit:10;" d="M -96.33725 -85.039315 C -96.33725 -79.539067 -100.798811 -75.078577 -106.298898 -75.078577 C -111.802401 -75.078577 -116.263962 -79.539067 -116.263962 -85.039315 C -116.263962 -90.542975 -111.802401 -95.004603 -106.298898 -95.004603 C -100.798811 -95.004603 -96.33725 -90.542975 -96.33725 -85.039315 Z M -96.33725 -85.039315 " transform="matrix(3.430344,0,0,-3.433794,419.633922,55.047159)"/>
<path style=" stroke:none;fill-rule:nonzero;fill:rgb(0%,0%,0%);fill-opacity:1;" d="M 60.449219 344.785156 C 60.449219 341.296875 57.929688 338.882812 54.765625 338.882812 C 52.566406 338.882812 51.015625 339.417969 49.40625 340.332031 L 49.621094 342.585938 C 51.390625 341.351562 53.105469 340.921875 54.765625 340.921875 C 56.375 340.921875 57.765625 342.261719 57.765625 344.785156 L 57.765625 346.285156 C 52.621094 346.339844 48.28125 347.789062 48.28125 350.792969 C 48.28125 352.242188 49.191406 355.03125 52.191406 355.03125 C 52.675781 355.03125 55.890625 354.976562 57.875 353.421875 L 57.875 354.65625 L 60.449219 354.65625 Z M 57.765625 350.148438 C 57.765625 350.792969 57.765625 351.652344 56.589844 352.296875 C 55.625 352.886719 54.285156 352.9375 53.910156 352.9375 C 52.300781 352.9375 50.746094 352.132812 50.746094 350.738281 C 50.746094 348.324219 56.265625 348.109375 57.765625 348.003906 Z M 57.765625 350.148438 "/>
<path style="fill:none;stroke-width:0.79701;stroke-linecap:butt;stroke-linejoin:miter;stroke:rgb(0%,0%,0%);stroke-opacity:1;stroke-miterlimit:10;" d="M -77.509416 -50.492984 L -99.657799 -77.067085 " transform="matrix(3.430344,0,0,-3.433794,419.633922,55.047159)"/>
<path style="fill-rule:nonzero;fill:rgb(85.098039%,85.098039%,85.098039%);fill-opacity:1;stroke-width:0.79701;stroke-linecap:butt;stroke-linejoin:miter;stroke:rgb(0%,0%,0%);stroke-opacity:1;stroke-miterlimit:10;" d="M -25.470395 -85.039315 C -25.470395 -79.539067 -29.931956 -75.078577 -35.432043 -75.078577 C -40.935546 -75.078577 -45.395968 -79.539067 -45.395968 -85.039315 C -45.395968 -90.542975 -40.935546 -95.004603 -35.432043 -95.004603 C -29.931956 -95.004603 -25.470395 -90.542975 -25.470395 -85.039315 Z M -25.470395 -85.039315 " transform="matrix(3.430344,0,0,-3.433794,419.633922,55.047159)"/>
<path style=" stroke:none;fill-rule:nonzero;fill:rgb(0%,0%,0%);fill-opacity:1;" d="M 299.613281 335.164062 L 296.554688 335.164062 L 287.660156 358.929688 L 290.179688 358.929688 L 292.804688 351.957031 L 302.773438 351.957031 L 305.347656 358.929688 L 308.507812 358.929688 Z M 302.023438 350.023438 L 293.554688 350.023438 L 295.753906 343.855469 C 296.449219 341.816406 297.519531 338.917969 297.789062 337.628906 C 297.898438 338.113281 298.109375 338.972656 298.914062 341.226562 Z M 302.023438 350.023438 "/>
<path style="fill:none;stroke-width:0.79701;stroke-linecap:butt;stroke-linejoin:miter;stroke:rgb(0%,0%,0%);stroke-opacity:1;stroke-miterlimit:10;" d="M -64.220386 -50.492984 L -42.076558 -77.067085 " transform="matrix(3.430344,0,0,-3.433794,419.633922,55.047159)"/>
<path style="fill-rule:nonzero;fill:rgb(85.098039%,85.098039%,85.098039%);fill-opacity:1;stroke-width:0.79701;stroke-linecap:butt;stroke-linejoin:miter;stroke:rgb(0%,0%,0%);stroke-opacity:1;stroke-miterlimit:10;" d="M -49.091161 -127.559013 C -49.091161 -122.058766 -53.552723 -117.598276 -59.056226 -117.598276 C -64.556313 -117.598276 -69.017874 -122.058766 -69.017874 -127.559013 C -69.017874 -133.062674 -64.556313 -137.523164 -59.056226 -137.523164 C -53.552723 -137.523164 -49.091161 -133.062674 -49.091161 -127.559013 Z M -49.091161 -127.559013 " transform="matrix(3.430344,0,0,-3.433794,419.633922,55.047159)"/>
<path style=" stroke:none;fill-rule:nonzero;fill:rgb(0%,0%,0%);fill-opacity:1;" d="M 222.511719 490.789062 C 222.511719 487.300781 219.992188 484.886719 216.828125 484.886719 C 214.632812 484.886719 213.078125 485.421875 211.46875 486.335938 L 211.683594 488.589844 C 213.453125 487.355469 215.167969 486.925781 216.828125 486.925781 C 218.4375 486.925781 219.832031 488.265625 219.832031 490.789062 L 219.832031 492.292969 C 214.683594 492.34375 210.34375 493.792969 210.34375 496.796875 C 210.34375 498.246094 211.253906 501.035156 214.257812 501.035156 C 214.738281 501.035156 217.953125 500.984375 219.9375 499.425781 L 219.9375 500.660156 L 222.511719 500.660156 Z M 219.832031 496.152344 C 219.832031 496.796875 219.832031 497.65625 218.652344 498.300781 C 217.6875 498.890625 216.347656 498.945312 215.972656 498.945312 C 214.363281 498.945312 212.808594 498.140625 212.808594 496.746094 C 212.808594 494.328125 218.328125 494.117188 219.832031 494.007812 Z M 219.832031 496.152344 "/>
<path style="fill:none;stroke-width:0.79701;stroke-linecap:butt;stroke-linejoin:miter;stroke:rgb(0%,0%,0%);stroke-opacity:1;stroke-miterlimit:10;" d="M -40.478913 -94.117282 L -54.01391 -118.481046 " transform="matrix(3.430344,0,0,-3.433794,419.633922,55.047159)"/>
<path style="fill-rule:nonzero;fill:rgb(85.098039%,85.098039%,85.098039%);fill-opacity:1;stroke-width:0.79701;stroke-linecap:butt;stroke-linejoin:miter;stroke:rgb(0%,0%,0%);stroke-opacity:1;stroke-miterlimit:10;" d="M -1.849628 -127.559013 C -1.849628 -122.058766 -6.31005 -117.598276 -11.810137 -117.598276 C -17.314779 -117.598276 -21.775202 -122.058766 -21.775202 -127.559013 C -21.775202 -133.062674 -17.314779 -137.523164 -11.810137 -137.523164 C -6.31005 -137.523164 -1.849628 -133.062674 -1.849628 -127.559013 Z M -1.849628 -127.559013 " transform="matrix(3.430344,0,0,-3.433794,419.633922,55.047159)"/>
<path style=" stroke:none;fill-rule:nonzero;fill:rgb(0%,0%,0%);fill-opacity:1;" d="M 380.644531 481.167969 L 377.589844 481.167969 L 368.691406 504.9375 L 371.210938 504.9375 L 373.835938 497.960938 L 383.804688 497.960938 L 386.378906 504.9375 L 389.539062 504.9375 Z M 383.054688 496.03125 L 374.585938 496.03125 L 376.785156 489.859375 C 377.480469 487.820312 378.554688 484.921875 378.820312 483.636719 C 378.929688 484.117188 379.140625 484.976562 379.945312 487.230469 Z M 383.054688 496.03125 "/>
<path style="fill:none;stroke-width:0.79701;stroke-linecap:butt;stroke-linejoin:miter;stroke:rgb(0%,0%,0%);stroke-opacity:1;stroke-miterlimit:10;" d="M -30.388588 -94.117282 L -16.853592 -118.481046 " transform="matrix(3.430344,0,0,-3.433794,419.633922,55.047159)"/>
<path style=" stroke:none;fill-rule:nonzero;fill:rgb(85.098039%,85.098039%,85.098039%);fill-opacity:1;" d="M 413.289062 639.074219 C 413.289062 620.175781 397.988281 604.859375 379.121094 604.859375 C 360.238281 604.859375 344.9375 620.175781 344.9375 639.074219 C 344.9375 657.960938 360.238281 673.277344 379.121094 673.277344 C 397.988281 673.277344 413.289062 657.960938 413.289062 639.074219 Z M 413.289062 639.074219 "/>
<g clip-path="url(#clip1)" clip-rule="nonzero">
<path style="fill:none;stroke-width:0.79701;stroke-linecap:butt;stroke-linejoin:miter;stroke:rgb(0%,0%,0%);stroke-opacity:1;stroke-miterlimit:10;" d="M -1.849628 -170.082125 C -1.849628 -164.578465 -6.31005 -160.117975 -11.810137 -160.117975 C -17.314779 -160.117975 -21.775202 -164.578465 -21.775202 -170.082125 C -21.775202 -175.582372 -17.314779 -180.042862 -11.810137 -180.042862 C -6.31005 -180.042862 -1.849628 -175.582372 -1.849628 -170.082125 Z M -1.849628 -170.082125 " transform="matrix(3.430344,0,0,-3.433794,419.633922,55.047159)"/>
</g>
<path style=" stroke:none;fill-rule:nonzero;fill:rgb(0%,0%,0%);fill-opacity:1;" d="M 375.972656 638.644531 C 377.097656 639.128906 378.117188 639.128906 378.921875 639.128906 C 379.777344 639.128906 381.707031 639.128906 381.707031 638.054688 C 381.707031 637.25 380.476562 637.144531 379.1875 637.144531 C 378.492188 637.144531 377.257812 637.195312 376.027344 637.789062 C 375.222656 637.410156 374.632812 636.714844 374.632812 635.800781 C 374.632812 633.710938 378.011719 632.476562 381.066406 632.476562 C 381.601562 632.476562 382.835938 632.476562 384.226562 633.441406 C 384.601562 633.710938 384.65625 633.816406 384.871094 633.816406 C 385.351562 633.816406 385.835938 633.335938 385.835938 632.851562 C 385.835938 632.207031 383.746094 630.917969 381.386719 630.917969 C 377.472656 630.917969 373.777344 633.226562 373.777344 635.800781 C 373.777344 637.304688 375.007812 638.164062 375.167969 638.269531 C 373.132812 639.398438 372.0625 641.273438 372.0625 642.882812 C 372.0625 645.085938 373.988281 647.175781 377.636719 647.175781 C 382.136719 647.175781 384.066406 644.171875 384.066406 643.636719 C 384.066406 643.421875 383.851562 643.3125 383.691406 643.3125 C 383.476562 643.3125 383.371094 643.421875 383.316406 643.527344 C 382.835938 644.332031 382.03125 645.621094 377.902344 645.621094 C 375.8125 645.621094 372.917969 645.085938 372.917969 642.667969 C 372.917969 641.488281 373.882812 639.664062 375.972656 638.644531 Z M 377.097656 638.214844 C 377.902344 637.949219 378.601562 637.894531 379.1875 637.894531 C 380.046875 637.894531 380.152344 637.949219 380.796875 638.109375 C 380.261719 638.324219 380.207031 638.378906 378.921875 638.378906 C 378.171875 638.378906 377.742188 638.378906 377.097656 638.214844 Z M 377.097656 638.214844 "/>
<path style="fill:none;stroke-width:0.79701;stroke-linecap:butt;stroke-linejoin:miter;stroke:rgb(0%,0%,0%);stroke-opacity:1;stroke-miterlimit:10;" d="M -11.810137 -137.922458 L -11.810137 -159.718681 " transform="matrix(3.430344,0,0,-3.433794,419.633922,55.047159)"/>
<path style=" stroke:none;fill-rule:nonzero;fill:rgb(85.098039%,85.098039%,85.098039%);fill-opacity:1;" d="M 696.910156 201.050781 C 696.910156 182.164062 681.605469 166.847656 662.726562 166.847656 C 643.859375 166.847656 628.558594 182.164062 628.558594 201.050781 C 628.558594 219.949219 643.859375 235.269531 662.726562 235.269531 C 681.605469 235.269531 696.910156 219.949219 696.910156 201.050781 Z M 696.910156 201.050781 "/>
<g clip-path="url(#clip2)" clip-rule="nonzero">
<path style="fill:none;stroke-width:0.79701;stroke-linecap:butt;stroke-linejoin:miter;stroke:rgb(0%,0%,0%);stroke-opacity:1;stroke-miterlimit:10;" d="M 80.830457 -42.519616 C 80.830457 -37.019369 76.368896 -32.558879 70.865393 -32.558879 C 65.365306 -32.558879 60.904884 -37.019369 60.904884 -42.519616 C 60.904884 -48.023276 65.365306 -52.484904 70.865393 -52.484904 C 76.368896 -52.484904 80.830457 -48.023276 80.830457 -42.519616 Z M 80.830457 -42.519616 " transform="matrix(3.430344,0,0,-3.433794,419.633922,55.047159)"/>
</g>
<path style=" stroke:none;fill-rule:nonzero;fill:rgb(0%,0%,0%);fill-opacity:1;" d="M 654.660156 189.160156 L 654.660156 212.929688 L 663.664062 212.929688 C 668.59375 212.929688 672.1875 209.871094 672.1875 206.492188 C 672.1875 203.539062 669.238281 201.074219 665.59375 200.480469 C 668.703125 199.730469 671.273438 197.746094 671.273438 195.117188 C 671.273438 192.003906 667.628906 189.160156 662.753906 189.160156 Z M 657.5 199.570312 L 657.5 191.09375 L 661.789062 191.09375 C 665.59375 191.09375 668.59375 192.917969 668.59375 195.171875 C 668.59375 197.210938 666.183594 199.570312 661.464844 199.570312 Z M 657.5 211 L 657.5 201.609375 L 662.429688 201.609375 C 666.078125 201.609375 669.453125 203.703125 669.453125 206.4375 C 669.453125 209.011719 666.398438 211 662.699219 211 Z M 657.5 211 "/>
<path style="fill:none;stroke-width:0.79701;stroke-linecap:butt;stroke-linejoin:miter;stroke:rgb(0%,0%,0%);stroke-opacity:1;stroke-miterlimit:10;" d="M 8.885221 -5.331801 L 61.943409 -37.163843 " transform="matrix(3.430344,0,0,-3.433794,419.633922,55.047159)"/>
<path style=" stroke:none;fill-rule:nonzero;fill:rgb(85.098039%,85.098039%,85.098039%);fill-opacity:1;" d="M 696.910156 347.054688 C 696.910156 328.167969 681.605469 312.851562 662.726562 312.851562 C 643.859375 312.851562 628.558594 328.167969 628.558594 347.054688 C 628.558594 365.953125 643.859375 381.273438 662.726562 381.273438 C 681.605469 381.273438 696.910156 365.953125 696.910156 347.054688 Z M 696.910156 347.054688 "/>
<g clip-path="url(#clip3)" clip-rule="nonzero">
<path style="fill:none;stroke-width:0.79701;stroke-linecap:butt;stroke-linejoin:miter;stroke:rgb(0%,0%,0%);stroke-opacity:1;stroke-miterlimit:10;" d="M 80.830457 -85.039315 C 80.830457 -79.539067 76.368896 -75.078577 70.865393 -75.078577 C 65.365306 -75.078577 60.904884 -79.539067 60.904884 -85.039315 C 60.904884 -90.542975 65.365306 -95.004603 70.865393 -95.004603 C 76.368896 -95.004603 80.830457 -90.542975 80.830457 -85.039315 Z M 80.830457 -85.039315 " transform="matrix(3.430344,0,0,-3.433794,419.633922,55.047159)"/>
</g>
<path style=" stroke:none;fill-rule:nonzero;fill:rgb(0%,0%,0%);fill-opacity:1;" d="M 659.257812 335.164062 L 656.6875 335.164062 L 656.6875 358.929688 L 659.367188 358.929688 L 659.367188 357.375 C 660.171875 358.125 661.671875 359.308594 663.976562 359.308594 C 667.351562 359.308594 670.300781 355.871094 670.300781 351.3125 C 670.300781 347.074219 667.996094 343.371094 664.78125 343.371094 C 663.441406 343.371094 661.296875 343.695312 659.257812 345.355469 Z M 659.367188 347.449219 C 659.902344 346.644531 661.136719 345.464844 663.011719 345.464844 C 665.046875 345.464844 667.621094 346.914062 667.621094 351.3125 C 667.621094 355.765625 664.78125 357.214844 662.6875 357.214844 C 661.347656 357.214844 660.222656 356.625 659.367188 355.015625 Z M 659.367188 347.449219 "/>
<path style="fill:none;stroke-width:0.79701;stroke-linecap:butt;stroke-linejoin:miter;stroke:rgb(0%,0%,0%);stroke-opacity:1;stroke-miterlimit:10;" d="M 70.865393 -52.88306 L 70.865393 -74.680421 " transform="matrix(3.430344,0,0,-3.433794,419.633922,55.047159)"/>
</g>
</svg>
